<svg viewBox="0 0 1600 1200" xmlns="http://www.w3.org/2000/svg">
<rect width="1600" height="1200" fill="#0a0a0c"/>
<defs>
<radialGradient id="hankGlow" cx="50%" cy="48%" r="60%"><stop offset="0%" stop-color="#2E9E8E" stop-opacity="0.22"/><stop offset="100%" stop-color="#2E9E8E" stop-opacity="0"/></radialGradient>
</defs>
<rect width="1600" height="1200" fill="url(#hankGlow)"/>
<svg x="250" y="357" width="1100" height="485" viewBox="2.0 18.0 216.5 95.5">
<ellipse cx="112" cy="102" rx="92" ry="6.5" fill="#BEE7FA" opacity="0.5"/><g fill="#1F7D6E"><rect x="64" y="64" width="8" height="29" rx="4"/><rect x="88" y="66" width="8" height="27" rx="4"/><rect x="128" y="66" width="8" height="27" rx="4"/><rect x="152" y="64" width="8" height="29" rx="4"/></g><path d="M56 56 q-30 -2 -46 -14 q-7 14 3 25 q17 8 43 1 z" fill="#2E9E8E"/><path d="M56 64 q-26 6 -44 -3 q14 11 44 8 z" fill="#1F7D6E"/><path d="M52 58 C74 42 94 40 114 42 C142 44 160 46 174 52 Q196 54 212 60 Q216 63 209 68 Q192 71 174 69 Q114 73 62 69 Q52 68 52 62 Z" fill="#2E9E8E"/><path d="M64 66 q66 -9 112 3 q-60 6 -108 2 z" fill="#5FC3B4" opacity="0.5"/><g fill="#00AEEF"><path d="M80 39 l6 -12 6 12 z"/><path d="M104 35 l6 -12 6 12 z"/><path d="M128 37 l6 -12 6 12 z"/><path d="M152 43 l5 -11 5 11 z"/></g><path d="M176 63 q17 6 33 1" fill="none" stroke="#14514A" stroke-width="2.5" stroke-linecap="round"/><ellipse cx="206" cy="61" rx="2.4" ry="1.7" fill="#14514A"/><ellipse cx="180" cy="55" rx="4.6" ry="2.8" fill="#F28FA6" opacity="0.5"/><circle cx="174" cy="45" r="9.5" fill="#2E9E8E"/><circle cx="174" cy="45" r="7.2" fill="#00AEEF" opacity="0.35"/><circle cx="174" cy="45" r="5.1" fill="#FFC64B"/><circle cx="175" cy="44" r="2.6" fill="#0E2E2A"/><circle cx="172" cy="43" r="1.3" fill="#fff"/>
</svg>
</svg>
